<?xml version="1.0" encoding="UTF-8"?>
<svg id="Capa_1" data-name="Capa 1" xmlns="http://www.w3.org/2000/svg" viewBox="0 0 503.4 495.92">
  <defs>
    <style>
      .cls-1 {
        fill: #e73629;
      }

      .cls-2 {
        fill: #aa4f92;
      }

      .cls-3 {
        fill: #17a3de;
      }

      .cls-4 {
        fill: #bccb2b;
      }
    </style>
  </defs>
  <path class="cls-4" d="M497.57,194.67C476.65,100.54,401.45,26.43,305.92,5.77v188.9h191.65Z"/>
  <path class="cls-4" d="M5.83,301.24c20.92,94.13,96.12,168.25,191.65,188.91v-188.91H5.83Z"/>
  <path class="cls-4" d="M197.48,5.77C101.95,26.43,26.75,100.54,5.83,194.67h191.65V5.77Z"/>
  <path class="cls-4" d="M305.92,490.15c95.53-20.66,170.73-94.78,191.65-188.91h-191.65v188.91Z"/>
  <path class="cls-3" d="M305.92,194.67V5.77c-17.46-3.78-35.61-5.77-54.22-5.77s-36.76,1.99-54.22,5.77v188.9h108.44Z"/>
  <path class="cls-3" d="M197.48,301.24v188.91c17.46,3.78,35.61,5.77,54.22,5.77s36.76-1.99,54.22-5.77v-188.91h-108.44Z"/>
  <path class="cls-1" d="M497.57,194.67h-191.65v106.57h191.65c3.82-17.16,5.83-34.99,5.83-53.28s-2.01-36.12-5.83-53.29Z"/>
  <path class="cls-1" d="M197.48,194.67H5.83c-3.82,17.17-5.83,35-5.83,53.29s2.01,36.12,5.83,53.28h191.65v-106.57Z"/>
  <rect class="cls-2" x="197.48" y="194.67" width="108.44" height="106.57"/>
</svg>