<?xml version="1.0" encoding="UTF-8"?>
<svg id="Capa_1" data-name="Capa 1" xmlns="http://www.w3.org/2000/svg" viewBox="0 0 540.88 540.88">
  <defs>
    <style>
      .cls-1 {
        fill: #dee48b;
      }

      .cls-2 {
        fill: #e73629;
        opacity: .56;
      }

      .cls-3 {
        fill: #232754;
      }

      .cls-4 {
        fill: #176e30;
      }
    </style>
  </defs>
  <path class="cls-3" d="M270.44,0C121.08,0,0,121.08,0,270.44s121.08,270.44,270.44,270.44,270.44-121.08,270.44-270.44S419.8,0,270.44,0ZM137.14,73.48c6.84-19.96,27.35-26.64,31.55-28,4.61-1.5,22.84-7.43,40.45,3.11,16.02,9.59,20.13,25.98,20.89,29.33.91,4.04,4.4,19.43-4.89,32.89-7.58,10.97-19.1,14.08-26.22,16-4.8,1.29-28.78,7.12-47.56-7.56-2.71-2.11-9.85-7.84-13.78-18.22-.77-2.02-5.09-13.98-.44-27.55ZM409.61,332.45c-3.57,7.69-9.33,12.67-9.33,12.67,0,0-4.93,4.25-11.67,6.66-10.22,3.66-76.41,10.4-168.4,16.92,0,16.57.11,32.95.3,49.18,4.58,3.07,9.73,5.33,15.43,7.79,7.82,3.36,26.51,11.17,52.34,10.5,4.9-.13,28.07-1.03,54.33-14.33,16.16-8.19,27.57-18.07,34.67-25.17.93-1.36,2.52-2.13,4.16-2,1.67.13,3.13,1.15,3.84,2.67,6.25,12.31,12.5,24.63,18.75,36.94.75.94,2.12,2.9,2.66,5.75.67,3.5-.29,6.3-.75,7.42-10.68,11.12-30.61,28.97-60.66,41-43.93,17.58-82.77,12.02-98,9-6.44-1.28-17.65-3.62-30.91-8.6-1.15.43-2.12.54-2.51.57-21.51.33-43.02.67-64.53,1-.86-.14-2.17-.5-3.39-1.5-3.3-2.72-2.6-7.51-2.55-7.83.91-15.14,1.66-30.63,2.24-46.44-18.75-27.2-23.38-54.31-25.69-68.87-7.19-45.33,5.04-80.44,7.67-87.66,1.93-5.29,6.85-17.95,15.91-32.79-1.38-23.29-3.11-45.93-5.16-67.85.23-.74,1.17-3.47,4-5.23,3.49-2.16,7.09-1.16,7.67-1,10.1.99,21.1,1.66,32.89,1.78,11.35.12,21.97-.28,31.77-1,2.57-.88,5.42-.33,7.45,1.45,1.38,1.21,2.23,2.86,2.48,4.64.33-.11.66-.23.99-.34,11.6-3.75,41.03-11.57,76.67-3,6.98,1.68,54.86,13.98,85,59.67,11.51,17.45,15.43,32.19,21.33,54.33,3.28,12.33,7.11,30.5,1,43.67Z"/>
  <path class="cls-4" d="M225.14,110.81c-7.58,10.97-19.1,14.08-26.22,16-4.8,1.29-28.78,7.12-47.56-7.56-2.71-2.11-9.85-7.84-13.78-18.22-.77-2.02-5.09-13.98-.44-27.55,6.84-19.96,27.35-26.64,31.55-28,4.61-1.5,22.84-7.43,40.45,3.11,16.02,9.59,20.13,25.98,20.89,29.33.91,4.04,4.4,19.43-4.89,32.89Z"/>
  <path class="cls-4" d="M224.47,181.03c-1.03,22.72-1.88,45.82-2.56,69.26-.6,21.22-1.06,42.73-1.34,64.53-.07,5.21-.13,10.42-.18,15.66-.12,12.83-.18,25.58-.18,38.22,0,16.57.11,32.95.3,49.18.25,20.76.64,41.26,1.18,61.46.08.46.67,4.47-2.25,7.5-.99,1.03-2.09,1.64-3.07,2.01-1.15.43-2.12.54-2.51.57-21.51.33-43.02.67-64.53,1-.86-.14-2.17-.5-3.39-1.5-3.3-2.72-2.6-7.51-2.55-7.83.91-15.14,1.66-30.63,2.24-46.44,1.5-40.88,1.82-83.97.54-129.06-.59-20.56-1.5-40.63-2.65-60.26-1.38-23.29-3.11-45.93-5.16-67.85.23-.74,1.17-3.47,4-5.23,3.49-2.16,7.09-1.16,7.67-1,10.1.99,21.1,1.66,32.89,1.78,11.35.12,21.97-.28,31.77-1,2.57-.88,5.42-.33,7.45,1.45,1.38,1.21,2.23,2.86,2.48,4.64.13.95.1,1.94-.15,2.91Z"/>
  <g>
    <path class="cls-1" d="M409.61,332.45c-3.57,7.69-9.33,12.67-9.33,12.67,0,0-4.93,4.25-11.67,6.66-10.22,3.66-76.41,10.4-168.4,16.92,0-12.64.06-25.39.18-38.22.05-5.24.11-10.45.18-15.66,21.43.28,45.16-.75,70.71-4.01,12.55-1.6,24.47-3.6,35.72-5.86.51-.09,3.04-.57,4.72-2.92,1.33-1.86,1.36-3.8,1.33-4.44-.31-5.19-1.39-13.05-5.11-21.78-6.93-16.3-18.55-25.09-23.11-28.44-5.19-3.83-16.99-12.28-34.22-13.78-3.85-.34-29.97-2.17-48.7,16.7.68-23.44,1.53-46.54,2.56-69.26.25-.97.28-1.96.15-2.91.33-.11.66-.23.99-.34,11.6-3.75,41.03-11.57,76.67-3,6.98,1.68,54.86,13.98,85,59.67,11.51,17.45,15.43,32.19,21.33,54.33,3.28,12.33,7.11,30.5,1,43.67Z"/>
    <path class="cls-1" d="M405.94,447.45c-10.68,11.12-30.61,28.97-60.66,41-43.93,17.58-82.77,12.02-98,9-6.44-1.28-17.65-3.62-30.91-8.6.98-.37,2.08-.98,3.07-2.01,2.92-3.03,2.33-7.04,2.25-7.5-.54-20.2-.93-40.7-1.18-61.46,4.58,3.07,9.73,5.33,15.43,7.79,7.82,3.36,26.51,11.17,52.34,10.5,4.9-.13,28.07-1.03,54.33-14.33,16.16-8.19,27.57-18.07,34.67-25.17.93-1.36,2.52-2.13,4.16-2,1.67.13,3.13,1.15,3.84,2.67,6.25,12.31,12.5,24.63,18.75,36.94.75.94,2.12,2.9,2.66,5.75.67,3.5-.29,6.3-.75,7.42Z"/>
    <path class="cls-1" d="M145.63,434.65c-18.75-27.2-23.38-54.31-25.69-68.87-7.19-45.33,5.04-80.44,7.67-87.66,1.93-5.29,6.85-17.95,15.91-32.79,1.15,19.63,2.06,39.7,2.65,60.26,1.28,45.09.96,88.18-.54,129.06Z"/>
  </g>
  <path class="cls-2" d="M331.72,302.03c-1.68,2.35-4.21,2.83-4.72,2.92-11.25,2.26-23.17,4.26-35.72,5.86-25.55,3.26-49.28,4.29-70.71,4.01.28-21.8.74-43.31,1.34-64.53,18.73-18.87,44.85-17.04,48.7-16.7,17.23,1.5,29.03,9.95,34.22,13.78,4.56,3.35,16.18,12.14,23.11,28.44,3.72,8.73,4.8,16.59,5.11,21.78.03.64,0,2.58-1.33,4.44Z"/>
  <path class="cls-2" d="M331.72,302.03c-1.68,2.35-4.21,2.83-4.72,2.92-11.25,2.26-23.17,4.26-35.72,5.86-25.55,3.26-49.28,4.29-70.71,4.01.28-21.8.74-43.31,1.34-64.53,18.73-18.87,44.85-17.04,48.7-16.7,17.23,1.5,29.03,9.95,34.22,13.78,4.56,3.35,16.18,12.14,23.11,28.44,3.72,8.73,4.8,16.59,5.11,21.78.03.64,0,2.58-1.33,4.44Z"/>
  <path class="cls-3" d="M331.72,302.03c-1.68,2.35-4.21,2.83-4.72,2.92-11.25,2.26-23.17,4.26-35.72,5.86-25.55,3.26-49.28,4.29-70.71,4.01.28-21.8.74-43.31,1.34-64.53,18.73-18.87,44.85-17.04,48.7-16.7,17.23,1.5,29.03,9.95,34.22,13.78,4.56,3.35,16.18,12.14,23.11,28.44,3.72,8.73,4.8,16.59,5.11,21.78.03.64,0,2.58-1.33,4.44Z"/>
</svg>